<svg xmlns="http://www.w3.org/2000/svg" viewBox="0 -0.5 25 25" shape-rendering="crispEdges">
<metadata>Made with Pixels to Svg https://codepen.io/shshaw/pen/XbxvNj</metadata>
<path stroke="#000000" d="M5 0h15M3 1h19M2 2h21M1 3h6M9 3h7M18 3h6M1 4h4M8 4h3M14 4h3M20 4h4M0 5h4M8 5h2M15 5h2M21 5h4M0 6h4M8 6h2M15 6h2M21 6h4M0 7h3M8 7h2M15 7h2M22 7h3M0 8h3M8 8h3M14 8h3M22 8h3M0 9h3M9 9h7M22 9h3M0 10h3M10 10h5M22 10h3M0 11h3M22 11h3M0 12h3M22 12h3M0 13h3M22 13h3M0 14h3M22 14h3M0 15h3M22 15h3M0 16h3M22 16h3M0 17h3M22 17h3M0 18h4M21 18h4M0 19h4M21 19h4M1 20h4M20 20h4M1 21h6M18 21h6M2 22h21M3 23h19M5 24h15" />
<path stroke="#15f16d" d="M7 3h2M16 3h2M5 4h3M11 4h3M17 4h3M4 5h2M10 5h5M19 5h2M4 6h1M6 6h2M10 6h5M17 6h2M20 6h1M3 7h2M6 7h2M10 7h5M17 7h2M20 7h2M3 8h1M5 8h3M11 8h3M17 8h3M21 8h1M3 9h1M5 9h4M16 9h4M21 9h1M3 10h1M5 10h5M15 10h5M21 10h1M3 11h1M5 11h15M21 11h1M3 12h1M5 12h15M21 12h1M3 13h1M5 13h15M21 13h1M3 14h1M5 14h15M21 14h1M3 15h1M5 15h15M21 15h1M3 16h1M5 16h15M21 16h1M3 17h2M6 17h13M20 17h2M4 18h1M6 18h13M20 18h1M4 19h2M8 19h9M19 19h2M5 20h3M17 20h3M7 21h11" />
<path stroke="#0ea048" d="M6 5h2M17 5h2M5 6h1M19 6h1M5 7h1M19 7h1M4 8h1M20 8h1M4 9h1M20 9h1M4 10h1M20 10h1M4 11h1M20 11h1M4 12h1M20 12h1M4 13h1M20 13h1M4 14h1M20 14h1M4 15h1M20 15h1M4 16h1M20 16h1M5 17h1M19 17h1M5 18h1M19 18h1M6 19h2M17 19h2M8 20h9" />
</svg>