<svg xmlns="http://www.w3.org/2000/svg" viewBox="0 -0.5 75 75" shape-rendering="crispEdges">
<metadata>Made with Pixels to Svg https://codepen.io/shshaw/pen/XbxvNj</metadata>
<path stroke="#000000" d="M9 30h57M9 31h57M9 32h57M9 33h3M63 33h3M9 34h3M63 34h3M9 35h3M63 35h3M9 36h3M63 36h3M9 37h3M63 37h3M9 38h3M63 38h3M9 39h3M63 39h3M9 40h3M63 40h3M9 41h3M63 41h3M9 42h57M9 43h57M9 44h57" />
<path stroke="#e10063" d="M12 33h51M12 34h51M12 35h51M12 36h51M12 37h51M12 38h51M12 39h51M12 40h51M12 41h51" />
</svg>