<svg xmlns="http://www.w3.org/2000/svg" viewBox="0 -0.5 75 75" shape-rendering="crispEdges">
<metadata>Made with Pixels to Svg https://codepen.io/shshaw/pen/XbxvNj</metadata>
<path stroke="#000000" d="M27 15h21M27 16h21M27 17h21M21 18h6M48 18h6M21 19h6M48 19h6M21 20h6M48 20h6M18 21h3M54 21h3M18 22h3M54 22h3M18 23h3M54 23h3M18 24h3M54 24h3M18 25h3M54 25h3M18 26h3M54 26h3M15 27h3M57 27h3M15 28h3M57 28h3M15 29h3M57 29h3M15 30h3M57 30h3M15 31h3M57 31h3M15 32h3M57 32h3M15 33h3M57 33h3M15 34h3M57 34h3M15 35h3M57 35h3M15 36h6M24 36h9M42 36h9M54 36h6M15 37h6M24 37h9M42 37h9M54 37h6M15 38h6M24 38h9M42 38h9M54 38h6M18 39h3M24 39h9M42 39h9M54 39h3M18 40h3M24 40h9M42 40h9M54 40h3M18 41h3M24 41h9M42 41h9M54 41h3M18 42h3M24 42h9M42 42h9M54 42h3M18 43h3M24 43h9M42 43h9M54 43h3M18 44h3M24 44h9M42 44h9M54 44h3M18 45h3M36 45h3M54 45h3M18 46h3M36 46h3M54 46h3M18 47h3M36 47h3M54 47h3M15 48h3M33 48h9M57 48h3M15 49h3M33 49h9M57 49h3M15 50h3M33 50h9M57 50h3M15 51h12M48 51h12M15 52h12M48 52h12M15 53h12M48 53h12M24 54h3M30 54h3M36 54h3M42 54h3M48 54h3M24 55h3M30 55h3M36 55h3M42 55h3M48 55h3M24 56h3M30 56h3M36 56h3M42 56h3M48 56h3M24 57h27M24 58h27M24 59h27" />
<path stroke="#ffffff" d="M27 18h21M27 19h21M27 20h21M21 21h33M21 22h33M21 23h33M21 24h33M21 25h33M21 26h33M18 27h39M18 28h39M18 29h39M18 30h39M18 31h39M18 32h39M18 33h39M18 34h39M18 35h39M21 36h3M33 36h9M51 36h3M21 37h3M33 37h9M51 37h3M21 38h3M33 38h9M51 38h3M21 39h3M33 39h9M51 39h3M21 40h3M33 40h9M51 40h3M21 41h3M33 41h9M51 41h3M21 42h3M33 42h9M51 42h3M21 43h3M33 43h9M51 43h3M21 44h3M33 44h9M51 44h3M21 45h15M39 45h15M21 46h15M39 46h15M21 47h15M39 47h15M18 48h15M42 48h15M18 49h15M42 49h15M18 50h15M42 50h15M27 51h21M27 52h21M27 53h21M27 54h3M33 54h3M39 54h3M45 54h3M27 55h3M33 55h3M39 55h3M45 55h3M27 56h3M33 56h3M39 56h3M45 56h3" />
</svg>