<svg xmlns="http://www.w3.org/2000/svg" viewBox="0 -0.5 75 75" shape-rendering="crispEdges">
<metadata>Made with Pixels to Svg https://codepen.io/shshaw/pen/XbxvNj</metadata>
<path stroke="#000000" d="M30 9h15M30 10h15M30 11h15M30 12h3M42 12h3M30 13h3M42 13h3M30 14h3M42 14h3M30 15h3M42 15h3M30 16h3M42 16h3M30 17h3M42 17h3M30 18h3M42 18h3M30 19h3M42 19h3M30 20h3M42 20h3M30 21h3M42 21h3M30 22h3M42 22h3M30 23h3M42 23h3M30 24h3M42 24h3M30 25h3M42 25h3M30 26h3M42 26h3M30 27h3M42 27h3M30 28h3M42 28h3M30 29h3M42 29h3M9 30h24M42 30h24M9 31h24M42 31h24M9 32h24M42 32h24M9 33h3M63 33h3M9 34h3M63 34h3M9 35h3M63 35h3M9 36h3M63 36h3M9 37h3M63 37h3M9 38h3M63 38h3M9 39h3M63 39h3M9 40h3M63 40h3M9 41h3M63 41h3M9 42h24M42 42h24M9 43h24M42 43h24M9 44h24M42 44h24M30 45h3M42 45h3M30 46h3M42 46h3M30 47h3M42 47h3M30 48h3M42 48h3M30 49h3M42 49h3M30 50h3M42 50h3M9 51h24M42 51h24M9 52h24M42 52h24M9 53h24M42 53h24M9 54h3M63 54h3M9 55h3M63 55h3M9 56h3M63 56h3M9 57h3M63 57h3M9 58h3M63 58h3M9 59h3M63 59h3M9 60h3M63 60h3M9 61h3M63 61h3M9 62h3M63 62h3M9 63h57M9 64h57M9 65h57" />
<path stroke="#d800ad" d="M33 12h9M33 13h9M33 14h9M33 15h9M33 16h9M33 17h9M33 18h9M33 19h9M33 20h9M33 21h9M33 22h9M33 23h9M33 24h9M33 25h9M33 26h9M33 27h9M33 28h9M33 29h9M33 30h9M33 31h9M33 32h9M12 33h51M12 34h51M12 35h51M12 36h51M12 37h51M12 38h51M12 39h51M12 40h51M12 41h51M33 42h9M33 43h9M33 44h9M33 45h9M33 46h9M33 47h9M33 48h9M33 49h9M33 50h9M33 51h9M33 52h9M33 53h9M12 54h51M12 55h51M12 56h51M12 57h51M12 58h51M12 59h51M12 60h51M12 61h51M12 62h51" />
</svg>