<svg xmlns="http://www.w3.org/2000/svg" viewBox="0 -0.5 75 75" shape-rendering="crispEdges">
<metadata>Made with Pixels to Svg https://codepen.io/shshaw/pen/XbxvNj</metadata>
<path stroke="#000000" d="M15 0h15M45 0h15M15 1h15M45 1h15M15 2h15M45 2h15M15 3h3M27 3h3M45 3h3M57 3h3M15 4h3M27 4h3M45 4h3M57 4h3M15 5h3M27 5h3M45 5h3M57 5h3M15 6h3M27 6h3M45 6h3M57 6h3M15 7h3M27 7h3M45 7h3M57 7h3M15 8h3M27 8h3M45 8h3M57 8h3M15 9h3M27 9h3M45 9h3M57 9h3M15 10h3M27 10h3M45 10h3M57 10h3M15 11h3M27 11h3M45 11h3M57 11h3M15 12h3M27 12h3M45 12h3M57 12h3M15 13h3M27 13h3M45 13h3M57 13h3M15 14h3M27 14h3M45 14h3M57 14h3M15 15h3M27 15h3M45 15h3M57 15h3M15 16h3M27 16h3M45 16h3M57 16h3M15 17h3M27 17h3M45 17h3M57 17h3M15 18h3M27 18h3M45 18h3M57 18h3M15 19h3M27 19h3M45 19h3M57 19h3M15 20h3M27 20h3M45 20h3M57 20h3M15 21h3M27 21h3M45 21h3M57 21h3M15 22h3M27 22h3M45 22h3M57 22h3M15 23h3M27 23h3M45 23h3M57 23h3M15 24h3M27 24h3M45 24h3M57 24h3M15 25h3M27 25h3M45 25h3M57 25h3M15 26h3M27 26h3M45 26h3M57 26h3M15 27h3M27 27h3M45 27h3M57 27h3M15 28h3M27 28h3M45 28h3M57 28h3M15 29h3M27 29h3M45 29h3M57 29h3M15 30h3M27 30h3M45 30h3M57 30h3M15 31h3M27 31h3M45 31h3M57 31h3M15 32h3M27 32h3M45 32h3M57 32h3M15 33h3M27 33h3M45 33h3M57 33h3M15 34h3M27 34h3M45 34h3M57 34h3M15 35h3M27 35h3M45 35h3M57 35h3M15 36h3M27 36h3M45 36h3M57 36h3M15 37h3M27 37h3M45 37h3M57 37h3M15 38h3M27 38h3M45 38h3M57 38h3M15 39h3M27 39h3M45 39h3M57 39h3M15 40h3M27 40h3M45 40h3M57 40h3M15 41h3M27 41h3M45 41h3M57 41h3M15 42h3M27 42h3M45 42h3M57 42h3M15 43h3M27 43h3M45 43h3M57 43h3M15 44h3M27 44h3M45 44h3M57 44h3M15 45h3M27 45h3M45 45h3M57 45h3M15 46h3M27 46h3M45 46h3M57 46h3M15 47h3M27 47h3M45 47h3M57 47h3M15 48h3M27 48h3M45 48h3M57 48h3M15 49h3M27 49h3M45 49h3M57 49h3M15 50h3M27 50h3M45 50h3M57 50h3M15 51h3M27 51h3M45 51h3M57 51h3M15 52h3M27 52h3M45 52h3M57 52h3M15 53h3M27 53h3M45 53h3M57 53h3M15 54h3M27 54h3M45 54h3M57 54h3M15 55h3M27 55h3M45 55h3M57 55h3M15 56h3M27 56h3M45 56h3M57 56h3M15 57h3M27 57h3M45 57h3M57 57h3M15 58h3M27 58h3M45 58h3M57 58h3M15 59h3M27 59h3M45 59h3M57 59h3M15 60h3M27 60h3M45 60h3M57 60h3M15 61h3M27 61h3M45 61h3M57 61h3M15 62h3M27 62h3M45 62h3M57 62h3M15 63h3M27 63h3M45 63h3M57 63h3M15 64h3M27 64h3M45 64h3M57 64h3M15 65h3M27 65h3M45 65h3M57 65h3M15 66h3M27 66h3M45 66h3M57 66h3M15 67h3M27 67h3M45 67h3M57 67h3M15 68h3M27 68h3M45 68h3M57 68h3M15 69h3M27 69h3M45 69h3M57 69h3M15 70h3M27 70h3M45 70h3M57 70h3M15 71h3M27 71h3M45 71h3M57 71h3M15 72h15M45 72h15M15 73h15M45 73h15M15 74h15M45 74h15" />
<path stroke="#b5b5b5" d="M18 3h9M48 3h9M18 4h9M48 4h9M18 5h9M48 5h9M18 6h9M48 6h9M18 7h9M48 7h9M18 8h9M48 8h9M18 9h9M48 9h9M18 10h9M48 10h9M18 11h9M48 11h9M18 12h9M48 12h9M18 13h9M48 13h9M18 14h9M48 14h9M18 15h9M48 15h9M18 16h9M48 16h9M18 17h9M48 17h9M18 18h9M48 18h9M18 19h9M48 19h9M18 20h9M48 20h9M18 21h9M48 21h9M18 22h9M48 22h9M18 23h9M48 23h9M18 24h9M48 24h9M18 25h9M48 25h9M18 26h9M48 26h9M18 27h9M48 27h9M18 28h9M48 28h9M18 29h9M48 29h9M18 30h9M48 30h9M18 31h9M48 31h9M18 32h9M48 32h9M18 33h9M48 33h9M18 34h9M48 34h9M18 35h9M48 35h9M18 36h9M48 36h9M18 37h9M48 37h9M18 38h9M48 38h9M18 39h9M48 39h9M18 40h9M48 40h9M18 41h9M48 41h9M18 42h9M48 42h9M18 43h9M48 43h9M18 44h9M48 44h9M18 45h9M48 45h9M18 46h9M48 46h9M18 47h9M48 47h9M18 48h9M48 48h9M18 49h9M48 49h9M18 50h9M48 50h9M18 51h9M48 51h9M18 52h9M48 52h9M18 53h9M48 53h9M18 54h9M48 54h9M18 55h9M48 55h9M18 56h9M48 56h9M18 57h9M48 57h9M18 58h9M48 58h9M18 59h9M48 59h9M18 60h9M48 60h9M18 61h9M48 61h9M18 62h9M48 62h9M18 63h9M48 63h9M18 64h9M48 64h9M18 65h9M48 65h9M18 66h9M48 66h9M18 67h9M48 67h9M18 68h9M48 68h9M18 69h9M48 69h9M18 70h9M48 70h9M18 71h9M48 71h9" />
</svg>