<svg xmlns="http://www.w3.org/2000/svg" viewBox="0 -0.5 75 75" shape-rendering="crispEdges">
<metadata>Made with Pixels to Svg https://codepen.io/shshaw/pen/XbxvNj</metadata>
<path stroke="#000000" d="M0 0h15M30 0h15M60 0h15M0 1h15M30 1h15M60 1h15M0 2h15M30 2h15M60 2h15M0 3h15M30 3h15M60 3h15M0 4h15M30 4h15M60 4h15M0 5h15M30 5h15M60 5h15M0 6h15M30 6h15M60 6h15M0 7h15M30 7h15M60 7h15M0 8h15M30 8h15M60 8h15M0 9h15M30 9h15M60 9h15M0 10h15M30 10h15M60 10h15M0 11h15M30 11h15M60 11h15M0 12h15M30 12h15M60 12h15M0 13h15M30 13h15M60 13h15M0 14h15M30 14h15M60 14h15M15 15h15M45 15h15M15 16h15M45 16h15M15 17h15M45 17h15M15 18h15M45 18h15M15 19h15M45 19h15M15 20h15M45 20h15M15 21h15M45 21h15M15 22h15M45 22h15M15 23h15M45 23h15M15 24h15M45 24h15M15 25h15M45 25h15M15 26h15M45 26h15M15 27h15M45 27h15M15 28h15M45 28h15M15 29h15M45 29h15M0 30h15M30 30h15M60 30h15M0 31h15M30 31h15M60 31h15M0 32h15M30 32h15M60 32h15M0 33h15M30 33h15M60 33h15M0 34h15M30 34h15M60 34h15M0 35h15M30 35h15M60 35h15M0 36h15M30 36h15M60 36h15M0 37h15M30 37h15M60 37h15M0 38h15M30 38h15M60 38h15M0 39h15M30 39h15M60 39h15M0 40h15M30 40h15M60 40h15M0 41h15M30 41h15M60 41h15M0 42h15M30 42h15M60 42h15M0 43h15M30 43h15M60 43h15M0 44h15M30 44h15M60 44h15M15 45h15M45 45h15M15 46h15M45 46h15M15 47h15M45 47h15M15 48h15M45 48h15M15 49h15M45 49h15M15 50h15M45 50h15M15 51h15M45 51h15M15 52h15M45 52h15M15 53h15M45 53h15M15 54h15M45 54h15M15 55h15M45 55h15M15 56h15M45 56h15M15 57h15M45 57h15M15 58h15M45 58h15M15 59h15M45 59h15M0 60h15M30 60h15M60 60h15M0 61h15M30 61h15M60 61h15M0 62h15M30 62h15M60 62h15M0 63h15M30 63h15M60 63h15M0 64h15M30 64h15M60 64h15M0 65h15M30 65h15M60 65h15M0 66h15M30 66h15M60 66h15M0 67h15M30 67h15M60 67h15M0 68h15M30 68h15M60 68h15M0 69h15M30 69h15M60 69h15M0 70h15M30 70h15M60 70h15M0 71h15M30 71h15M60 71h15M0 72h15M30 72h15M60 72h15M0 73h15M30 73h15M60 73h15M0 74h15M30 74h15M60 74h15" />
<path stroke="#ffffff" d="M15 0h15M45 0h15M15 1h15M45 1h15M15 2h15M45 2h15M15 3h15M45 3h15M15 4h15M45 4h15M15 5h15M45 5h15M15 6h15M45 6h15M15 7h15M45 7h15M15 8h15M45 8h15M15 9h15M45 9h15M15 10h15M45 10h15M15 11h15M45 11h15M15 12h15M45 12h15M15 13h15M45 13h15M15 14h15M45 14h15M0 15h15M30 15h15M60 15h15M0 16h15M30 16h15M60 16h15M0 17h15M30 17h15M60 17h15M0 18h15M30 18h15M60 18h15M0 19h15M30 19h15M60 19h15M0 20h15M30 20h15M60 20h15M0 21h15M30 21h15M60 21h15M0 22h15M30 22h15M60 22h15M0 23h15M30 23h15M60 23h15M0 24h15M30 24h15M60 24h15M0 25h15M30 25h15M60 25h15M0 26h15M30 26h15M60 26h15M0 27h15M30 27h15M60 27h15M0 28h15M30 28h15M60 28h15M0 29h15M30 29h15M60 29h15M15 30h15M45 30h15M15 31h15M45 31h15M15 32h15M45 32h15M15 33h15M45 33h15M15 34h15M45 34h15M15 35h15M45 35h15M15 36h15M45 36h15M15 37h15M45 37h15M15 38h15M45 38h15M15 39h15M45 39h15M15 40h15M45 40h15M15 41h15M45 41h15M15 42h15M45 42h15M15 43h15M45 43h15M15 44h15M45 44h15M0 45h15M30 45h15M60 45h15M0 46h15M30 46h15M60 46h15M0 47h15M30 47h15M60 47h15M0 48h15M30 48h15M60 48h15M0 49h15M30 49h15M60 49h15M0 50h15M30 50h15M60 50h15M0 51h15M30 51h15M60 51h15M0 52h15M30 52h15M60 52h15M0 53h15M30 53h15M60 53h15M0 54h15M30 54h15M60 54h15M0 55h15M30 55h15M60 55h15M0 56h15M30 56h15M60 56h15M0 57h15M30 57h15M60 57h15M0 58h15M30 58h15M60 58h15M0 59h15M30 59h15M60 59h15M15 60h15M45 60h15M15 61h15M45 61h15M15 62h15M45 62h15M15 63h15M45 63h15M15 64h15M45 64h15M15 65h15M45 65h15M15 66h15M45 66h15M15 67h15M45 67h15M15 68h15M45 68h15M15 69h15M45 69h15M15 70h15M45 70h15M15 71h15M45 71h15M15 72h15M45 72h15M15 73h15M45 73h15M15 74h15M45 74h15" />
</svg>